<svg viewBox="0 0 32 32"  xmlns="http://www.w3.org/2000/svg">
<mask id="mask0_1357_304" style="mask-type:alpha" maskUnits="userSpaceOnUse" x="0" y="0" width="32" height="32">
<circle cx="16" cy="16" r="16" fill="#FFAF00"/>
</mask>
<g mask="url(#mask0_1357_304)">
<path d="M5.63596 29.9919C5.11774 23.1904 7.55337 7.16487 9.26349 6.54301C9.84649 6.33101 11.5307 8.61542 12.1137 10.7535L17.1015 10.1058C17.6845 8.87459 19.1744 5.73115 19.6279 5.70092C20.4052 5.6491 21.053 9.78141 21.7007 12.956C22.7372 12.8259 23.7088 12.7612 24.6805 12.6243M20.7291 32.5183L20.0813 23.579C22.6076 23.0608 26.3906 21.9078 26.7534 21.7005C27.1161 21.4932 27.725 17.8786 27.8546 14.8989M24.6805 12.6243C24.6805 12.6243 27.3814 12.2538 27.5955 12.4373C27.8677 12.6707 27.8724 13.691 27.8546 14.8989M24.6805 12.6243C24.6157 13.6033 24.7513 14.3868 25.1339 14.7693C25.6522 15.2875 27.1348 14.9905 27.8546 14.8989"  stroke-width="1.14286"/>
<path d="M14.5856 15.0568C14.5856 15.2825 14.522 15.4789 14.4286 15.6138C14.3346 15.7495 14.2231 15.8088 14.1215 15.8088C14.02 15.8088 13.9084 15.7495 13.8145 15.6138C13.7211 15.4789 13.6574 15.2825 13.6574 15.0568C13.6574 14.831 13.7211 14.6346 13.8145 14.4997C13.9084 14.364 14.02 14.3048 14.1215 14.3048C14.2231 14.3048 14.3346 14.364 14.4286 14.4997C14.522 14.6346 14.5856 14.831 14.5856 15.0568Z" fill="#2F80ED"  stroke-width="0.367358"/>
<path d="M18.602 14.5385C18.602 14.7642 18.5383 14.9606 18.4449 15.0955C18.351 15.2312 18.2395 15.2904 18.1379 15.2904C18.0363 15.2904 17.9248 15.2312 17.8309 15.0955C17.7374 14.9606 17.6738 14.7642 17.6738 14.5385C17.6738 14.3127 17.7374 14.1163 17.8309 13.9814C17.9248 13.8457 18.0363 13.7865 18.1379 13.7865C18.2395 13.7865 18.351 13.8457 18.4449 13.9814C18.5383 14.1163 18.602 14.3127 18.602 14.5385Z" fill="#2F80ED"  stroke-width="0.367358"/>
</g>
</svg>
